<?xml version="1.0" encoding="UTF-8"?>
<svg width="175px" height="60px" viewBox="0 0 175 60" version="1.1" xmlns="http://www.w3.org/2000/svg" xmlns:xlink="http://www.w3.org/1999/xlink">
    <!-- Generator: Sketch 47.1 (45422) - http://www.bohemiancoding.com/sketch -->
    <title>hommore-logo3</title>
    <desc>Created with Sketch.</desc>
    <defs></defs>
    <g id="User-Interface" stroke="none" stroke-width="1" fill="none" fill-rule="evenodd">
        <g id="Landing-Page" transform="translate(-124.000000, -44.000000)" fill-rule="nonzero">
            <g id="Navbar" transform="translate(124.000000, 44.000000)">
                <g id="hommore-logo">
                    <path d="M136.204981,41.9061303 C136.204981,48.2624521 132.101533,52.5670498 125.90613,52.5670498 C119.710728,52.5670498 115.60728,48.2758621 115.60728,41.9061303 C115.60728,35.5363985 119.670498,31.2452107 125.90613,31.2452107 C132.141762,31.2452107 136.204981,35.5363985 136.204981,41.9061303 Z M132.544061,41.8659004 C132.544061,36.5555556 128.963602,34.5842912 125.90613,34.5842912 C122.848659,34.5842912 119.268199,36.5555556 119.268199,41.8659004 C119.268199,47.1762452 122.808429,49.2413793 125.90613,49.2413793 C129.003831,49.2413793 132.544061,47.2164751 132.544061,41.8659004 L132.544061,41.8659004 Z" id="Shape" fill="#2F313D"></path>
                    <path d="M153.262452,33.0555556 C153.265642,33.5366885 153.06753,33.9972433 152.716042,34.3258084 C152.364554,34.6543735 151.891703,34.8210221 151.411877,34.7854406 L151.210728,34.7854406 C148.665962,34.8304079 146.317853,36.1635282 144.975096,38.3256705 L144.975096,50.5555556 C144.960386,51.5649489 144.133994,52.3733762 143.124521,52.3659004 C142.643841,52.3676906 142.182332,52.1775334 141.842438,51.837639 C141.502543,51.4977446 141.312386,51.0362354 141.314176,50.5555556 L141.314176,33.2969349 C141.3067,32.2874621 142.115128,31.4610697 143.124521,31.4463602 C144.142023,31.4572435 144.964212,32.2794328 144.975096,33.2969349 L144.975096,35.0268199 C146.423372,33.0957854 148.515326,31.2452107 151.291188,31.2452107 L151.492337,31.2452107 C151.968855,31.2450876 152.425296,31.4370936 152.758438,31.777807 C153.09158,32.1185205 153.273282,32.5791608 153.262452,33.0555556 L153.262452,33.0555556 Z" id="Shape" fill="#2F313D"></path>
                    <path d="M174.181992,49.3084291 C174.122035,49.9550031 173.724014,50.5214169 173.136015,50.7969349 C171.014386,52.066416 168.565533,52.6821277 166.095785,52.5670498 C159.538314,52.5670498 155.676245,48.664751 155.676245,41.9061303 C155.676245,36.4750958 158.613027,31.2452107 165.291188,31.2452107 C171.48659,31.2452107 174.8659,36.032567 174.8659,41.3831418 C174.879592,41.8744227 174.687638,42.3491284 174.336317,42.6928117 C173.984996,43.0364949 173.506187,43.2179706 173.015326,43.1934866 L159.377395,43.1934866 C159.779693,46.8141762 162.059387,49.1475096 166.417625,49.1475096 C168.305228,49.207135 170.176163,48.7775129 171.848659,47.9003831 C172.07239,47.7859352 172.321651,47.7305439 172.572797,47.7394636 C172.994781,47.7322956 173.402144,47.8939999 173.704328,48.1886298 C174.006513,48.4832596 174.178477,48.8863985 174.181992,49.3084291 Z M159.377395,40.2298851 L171.245211,40.2298851 C171.003831,36.045977 167.89272,34.3563218 165.291188,34.3563218 C162.689655,34.3563218 159.618774,36.032567 159.377395,40.2298851 Z" id="Shape" fill="#2F313D"></path>
                    <path d="M80.4597701,36.6695402 C80.4597701,36.6695402 81.7404215,35.006705 82.0488506,34.5842912 C83.1886973,33.0153257 85.3141762,31.3256705 89.0756705,31.3256705 C91.7811087,31.3043105 94.2201748,32.9516797 95.210728,35.4693487 C96.7075971,32.8242728 99.5485201,31.2281906 102.586207,31.3256705 C107.333333,31.3256705 109.291188,35.4693487 109.291188,39.0498084 L109.291188,50.6360153 C109.276478,51.6454086 108.450086,52.4538359 107.440613,52.4463602 C106.959933,52.4481504 106.498424,52.2579932 106.15853,51.9180988 C105.818635,51.5782044 105.628478,51.1166952 105.630268,50.6360153 L105.630268,39.7739464 C105.630268,36.4214559 104.584291,34.7049808 101.52682,34.7049808 C98.4693487,34.7049808 96.8333333,36.756705 95.7337165,38.5670498 L95.7337165,50.6360153 C95.7190069,51.6454086 94.8926146,52.4538359 93.8831418,52.4463602 C93.4024619,52.4481504 92.9409527,52.2579932 92.6010583,51.9180988 C92.2611639,51.5782044 92.0710067,51.1166952 92.0727969,50.6360153 L92.0727969,39.7739464 C92.0727969,36.4214559 91.0268199,34.7049808 87.9693487,34.7049808 C84.9118774,34.7049808 83.2758621,36.7164751 82.1829502,38.5536398 L82.1829502,50.5354406 C82.1829502,50.5354406 82.1829502,50.5957854 82.1829502,50.6226054 L82.1829502,50.6226054 C82.1418832,51.555623 81.3929408,52.3016512 80.4597701,52.3390805 L80.3256705,52.3390805 C79.3820515,52.3153593 78.6176373,51.5655891 78.5756705,50.6226054 L78.5756705,50.6226054 C78.5756705,50.6226054 78.5756705,50.5622605 78.5756705,50.5354406 L78.5756705,38.5536398 C77.4894636,36.743295 75.8400383,34.7049808 72.789272,34.7049808 C69.7385057,34.7049808 68.6858238,36.394636 68.6858238,39.7739464 L68.6858238,50.6360153 C68.687614,51.1166952 68.4974568,51.5782044 68.1575624,51.9180988 C67.817668,52.2579932 67.3561588,52.4481504 66.8754789,52.4463602 C65.8660061,52.4538359 65.0396138,51.6454086 65.0249042,50.6360153 L65.0249042,38.5670498 C63.9386973,36.756705 62.289272,34.7049808 59.2318008,34.7049808 C56.1743295,34.7049808 55.1283525,36.394636 55.1283525,39.7739464 L55.1283525,50.6360153 C55.1301428,51.1166952 54.9399855,51.5782044 54.6000911,51.9180988 C54.2601968,52.2579932 53.7986876,52.4481504 53.3180077,52.4463602 C52.3085349,52.4538359 51.4821425,51.6454086 51.467433,50.6360153 L51.467433,39.0498084 C51.467433,35.4693487 53.4386973,31.3256705 58.1724138,31.3256705 C61.2101006,31.2281906 64.0510236,32.8242728 65.5478927,35.4693487 C66.5462819,32.9308446 69.0159129,31.2790784 71.743295,31.3256705 C75.5047893,31.3256705 77.6302682,33.0153257 78.7701149,34.5842912 C79.112069,35.0536398 80.3591954,36.6695402 80.3591954,36.6695402 L80.4597701,36.6695402 Z" id="Shape" fill="#2F313D"></path>
                    <path d="M18.5996169,39.1302682 L18.5996169,50.5287356 C18.5996169,51.5433737 17.7770902,52.3659004 16.7624521,52.3659004 C16.2817722,52.3676906 15.820263,52.1775334 15.4803687,51.837639 C15.1404743,51.4977446 14.950317,51.0362354 14.9521073,50.5555556 L14.9521073,39.559387 C14.9521073,36.5019157 13.664751,34.651341 10.5268199,34.651341 C7.6302682,34.651341 5.53831418,36.5019157 3.92911877,38.51341 L3.92911877,50.5823755 C3.91440922,51.5917688 3.08801687,52.4001961 2.07854406,52.3927203 C1.59786417,52.3945106 1.13635497,52.2043533 0.796460605,51.8644589 C0.456566237,51.5245646 0.266408973,51.0630554 0.268199234,50.5823755 L0.268199234,24.4463602 C0.257372873,23.9592949 0.443314903,23.4884235 0.784000925,23.1401667 C1.12468695,22.7919098 1.59135851,22.5956651 2.07854406,22.5957854 C2.56989355,22.5939954 3.04163521,22.7883913 3.38907407,23.1358301 C3.73651293,23.483269 3.93090877,23.9550107 3.92911877,24.4463602 L3.92911877,34.9463602 C5.60536398,33.0957854 7.81800766,31.2452107 11.3984674,31.2452107 C15.9846743,31.2452107 18.5996169,34.8256705 18.5996169,39.1302682 Z" id="Shape" fill="#2F313D"></path>
                    <path d="M45.4463602,41.9061303 C45.4463602,48.2624521 41.3429119,52.5670498 35.1475096,52.5670498 C28.9521073,52.5670498 24.848659,48.2758621 24.848659,41.9061303 C24.848659,35.5363985 28.9118774,31.2452107 35.1475096,31.2452107 C41.3831418,31.2452107 45.4463602,35.5363985 45.4463602,41.9061303 Z M41.7854406,41.8659004 C41.7854406,36.5555556 38.2049808,34.5842912 35.1475096,34.5842912 C32.0900383,34.5842912 28.5095785,36.5555556 28.5095785,41.8659004 C28.5095785,47.1762452 32.0498084,49.2413793 35.1475096,49.2413793 C38.2452107,49.2413793 41.7854406,47.2164751 41.7854406,41.8659004 L41.7854406,41.8659004 Z" id="Shape" fill="#000000"></path>
                    <path d="M54.7931034,21.4559387 C53.3649425,22.4549808 52.2519157,22.1934866 51.0047893,20.9195402 C46.3448276,16.1388889 41.5708812,11.4454023 36.8773946,6.70498084 C35.2078544,5.03544061 34.8659004,5.02873563 33.243295,6.70498084 C28.1162197,11.8454662 23.0070243,16.9859515 17.9157088,22.1264368 C16.8898467,22.4348659 15.9042146,22.4818008 15.2337165,21.4559387 C14.4224138,20.1551724 15.2337165,19.1829502 16.0383142,18.3448276 C19.9070881,14.4358238 23.795977,10.5871648 27.651341,6.70498084 C29.4214559,4.92816092 31.1781609,3.13122605 32.9348659,1.34099617 C34.4501916,-0.207854406 35.4961686,-0.288314176 37.0517241,1.26724138 C42.8180077,7.02681992 48.5373563,12.8333333 54.3103448,18.6130268 C55.1350575,19.4444444 55.4300766,20.3697318 54.7931034,21.4559387 Z" id="Shape" fill="#FF6B6B"></path>
                    <path d="M54.25,31.1781609 C48.4077267,25.3314176 42.5654534,19.4846743 36.7231801,13.637931 C36.2989073,13.1513937 35.6978622,12.8544919 35.0536398,12.8132184 L35.01341,12.8132184 C34.3691876,12.8544919 33.7681425,13.1513937 33.3438697,13.637931 C27.4926564,19.4802043 21.6481481,25.3269476 15.8103448,31.1781609 C15.1777727,31.8229007 14.8445597,32.7033613 14.8917625,33.605364 C14.8917625,41.4233716 14.8917625,49.2413793 14.8917625,57.0727969 C14.8917625,59.0842912 15.5622605,59.7011494 17.6676245,59.7145594 C23.6015326,59.7480843 28.8984674,57.7835249 33.7998084,54.591954 C34.1562511,54.3157359 34.571515,54.125311 35.01341,54.0354406 C35.4553049,54.125311 35.8705688,54.3157359 36.2270115,54.591954 C41.1283525,57.7768199 46.4252874,59.7480843 52.3591954,59.7145594 C54.4377395,59.7145594 55.1283525,59.1044061 55.1350575,57.0727969 C55.1350575,49.2547893 55.1350575,41.4367816 55.1350575,33.605364 C55.1911454,32.7083148 54.8703485,31.8285537 54.25,31.1781609 Z" id="Shape" fill="#FF6B6B"></path>
                    <path d="M50.1599617,32.4789272 C45.5603448,27.8793103 40.960728,23.2796935 36.3611111,18.6800766 C36.024607,18.2826052 35.5399946,18.040299 35.0201149,18.0095785 L35.0201149,18.0095785 C34.5002353,18.040299 34.0156229,18.2826052 33.6791188,18.6800766 C29.1063218,23.2752235 24.51341,27.8748404 19.9003831,32.4789272 C19.4015289,32.9860522 19.1387576,33.6794764 19.1762452,34.3898467 C19.1762452,40.5450192 19.1762452,46.7001916 19.1762452,52.848659 C19.1762452,54.4444444 19.7260536,54.9204981 21.362069,54.9272031 C26.0555556,54.9272031 30.1992337,52.1312261 34.0613027,49.6235632 C34.3411871,49.407423 34.6669002,49.258329 35.01341,49.1877395 C35.3599197,49.258329 35.6856328,49.407423 35.9655172,49.6235632 C39.8275862,52.1312261 44.0114943,54.9875479 48.664751,54.9272031 C50.3007663,54.9272031 50.8438697,54.4444444 50.8505747,52.848659 C50.8505747,46.6934866 50.8505747,40.5383142 50.8505747,34.3898467 C50.8969482,33.6844339 50.6465951,32.9917095 50.1599617,32.4789272 Z" id="Shape" fill="#EDE9CE"></path>
                    <path d="M44.0114943,41.5708812 C44.0114943,46.532567 35.0268199,53.4655172 35.0268199,53.4655172 C35.0268199,53.4655172 26.0421456,46.5258621 26.0421456,41.5708812 C26.0421457,36.6087827 30.0647214,32.5862071 35.0268199,32.5862071 C39.9889185,32.5862071 44.0114941,36.6087827 44.0114943,41.5708812 L44.0114943,41.5708812 Z" id="Shape" fill="#FF6B6B"></path>
                </g>
            </g>
        </g>
    </g>
</svg>