<?xml version="1.0" encoding="UTF-8"?>
<svg width="231px" height="37px" viewBox="0 0 231 37" version="1.1" xmlns="http://www.w3.org/2000/svg" xmlns:xlink="http://www.w3.org/1999/xlink">
    <!-- Generator: Sketch 47.1 (45422) - http://www.bohemiancoding.com/sketch -->
    <title>hommore-wordmark</title>
    <desc>Created with Sketch.</desc>
    <defs>
        <linearGradient x1="100%" y1="0%" x2="0%" y2="100%" id="linearGradient-1">
            <stop stop-color="#FF6B6B" offset="0%"></stop>
            <stop stop-color="#F0516F" offset="100%"></stop>
        </linearGradient>
    </defs>
    <g id="User-Interface" stroke="none" stroke-width="1" fill="none" fill-rule="evenodd">
        <g id="Landing-Page" transform="translate(-123.000000, -3404.000000)" fill="url(#linearGradient-1)">
            <g id="Footer" transform="translate(0.000000, 3158.000000)">
                <g id="hommore-wordmark" transform="translate(123.000000, 246.000000)">
                    <path d="M6.52545761,14.2682919 L5.65,13.1741979 L5.65,13.65 C5.65,14.85 5.55,15.75 5.55,15.75 L5.65,15.75 C5.86339541,15.2747102 6.15582303,14.7711947 6.52545761,14.2682919 Z M5.65,13.1741979 L6.52545761,14.2682919 C8.06119691,12.1788567 10.9296789,10.1 15,10.1 C20.95,10.1 23.7,13.35 23.7,19.8 L23.7,36 L18.85,36 L18.85,20.9 C18.85,17.35 18.1,14.55 14.05,14.55 C10.25,14.55 7.1,17.15 6.05,20.8 C5.75,21.8 5.65,22.95 5.65,24.15 L5.65,36 L0.8,36 L0.8,0.7 L5.65,0.7 L5.65,13.1741979 Z M29.977193,23.3 C29.977193,15.65 36.077193,10.1 43.627193,10.1 C51.177193,10.1 57.277193,15.65 57.277193,23.3 C57.277193,31 51.177193,36.6 43.627193,36.6 C36.077193,36.6 29.977193,31 29.977193,23.3 Z M34.927193,23.3 C34.927193,28.6 38.877193,32.4 43.627193,32.4 C48.427193,32.4 52.327193,28.6 52.327193,23.3 C52.327193,18.05 48.427193,14.3 43.627193,14.3 C38.877193,14.3 34.927193,18.05 34.927193,23.3 Z M69.410022,14.4184528 L68.6043861,13.6583333 L68.6043861,14.05 C68.6043861,15.05 68.5043861,15.9 68.5043861,15.9 L68.6043861,15.9 C68.8082772,15.3987676 69.0800108,14.9004222 69.410022,14.4184528 Z M68.6043861,13.6583333 L69.410022,14.4184528 C71.0222896,12.0637943 74.0255277,10.1 77.3043861,10.1 C81.5543861,10.1 84.0543861,12.05 84.9043861,15.85 L85.0043861,15.85 C86.4043861,12.8 89.9043861,10.1 94.0043861,10.1 C99.7043861,10.1 102.354386,13.35 102.354386,19.8 L102.354386,36 L97.5043861,36 L97.5043861,20.85 C97.5043861,17.3 96.8043861,14.5 93.0043861,14.5 C89.4543861,14.5 86.8043861,17.5 85.9043861,20.95 C85.6543861,22 85.5543861,23.15 85.5543861,24.45 L85.5543861,36 L80.7043861,36 L80.7043861,20.85 C80.7043861,17.55 80.2043861,14.5 76.3043861,14.5 C72.6043861,14.5 70.0043861,17.55 69.0543861,21.15 C68.8043861,22.15 68.7543861,23.3 68.7543861,24.45 L68.7543861,36 L63.9043861,36 L63.9043861,10.7 L68.6043861,10.7 L68.6043861,13.6583333 Z M115.987215,14.4184528 L115.181579,13.6583333 L115.181579,14.05 C115.181579,15.05 115.081579,15.9 115.081579,15.9 L115.181579,15.9 C115.38547,15.3987676 115.657204,14.9004222 115.987215,14.4184528 Z M115.181579,13.6583333 L115.987215,14.4184528 C117.599483,12.0637943 120.602721,10.1 123.881579,10.1 C128.131579,10.1 130.631579,12.05 131.481579,15.85 L131.581579,15.85 C132.981579,12.8 136.481579,10.1 140.581579,10.1 C146.281579,10.1 148.931579,13.35 148.931579,19.8 L148.931579,36 L144.081579,36 L144.081579,20.85 C144.081579,17.3 143.381579,14.5 139.581579,14.5 C136.031579,14.5 133.381579,17.5 132.481579,20.95 C132.231579,22 132.131579,23.15 132.131579,24.45 L132.131579,36 L127.281579,36 L127.281579,20.85 C127.281579,17.55 126.781579,14.5 122.881579,14.5 C119.181579,14.5 116.581579,17.55 115.631579,21.15 C115.381579,22.15 115.331579,23.3 115.331579,24.45 L115.331579,36 L110.481579,36 L110.481579,10.7 L115.181579,10.7 L115.181579,13.6583333 Z M155.208772,23.3 C155.208772,15.65 161.308772,10.1 168.858772,10.1 C176.408772,10.1 182.508772,15.65 182.508772,23.3 C182.508772,31 176.408772,36.6 168.858772,36.6 C161.308772,36.6 155.208772,31 155.208772,23.3 Z M160.158772,23.3 C160.158772,28.6 164.108772,32.4 168.858772,32.4 C173.658772,32.4 177.558772,28.6 177.558772,23.3 C177.558772,18.05 173.658772,14.3 168.858772,14.3 C164.108772,14.3 160.158772,18.05 160.158772,23.3 Z M194.44408,15.4537397 L193.835965,14.44125 L193.835965,15.1 C193.835965,16.15 193.735965,17 193.735965,17 L193.835965,17 C194.002001,16.4657969 194.205559,15.94827 194.44408,15.4537397 Z M193.835965,14.44125 L194.44408,15.4537397 C195.857606,12.5230521 198.499044,10.4 201.835965,10.4 C202.485965,10.4 203.085965,10.5 203.085965,10.5 L203.085965,15.3 C203.085965,15.3 202.435965,15.15 201.685965,15.15 C198.585965,15.15 195.735965,17.35 194.585965,21.1 C194.135965,22.55 193.985965,24.1 193.985965,25.65 L193.985965,36 L189.135965,36 L189.135965,10.7 L193.835965,10.7 L193.835965,14.44125 Z M206.863158,23.35 C206.863158,15.3 212.313158,10.1 219.513158,10.1 C226.663158,10.1 230.463158,15.4 230.463158,21.95 C230.463158,22.6 230.313158,24.05 230.313158,24.05 L211.863158,24.05 C212.113158,29.6 216.063158,32.4 220.563158,32.4 C224.913158,32.4 228.063158,29.45 228.063158,29.45 L230.063158,33 C230.063158,33 226.313158,36.6 220.263158,36.6 C212.313158,36.6 206.863158,30.85 206.863158,23.35 Z M212.013158,20.4 L225.513158,20.4 C225.363158,16.05 222.663158,13.95 219.413158,13.95 C215.713158,13.95 212.713158,16.25 212.013158,20.4 Z" id="hommore"></path>
                </g>
            </g>
        </g>
    </g>
</svg>