<?xml version="1.0" encoding="UTF-8"?>
<svg width="1075px" height="216px" viewBox="0 0 1075 216" version="1.1" xmlns="http://www.w3.org/2000/svg" xmlns:xlink="http://www.w3.org/1999/xlink">
    <!-- Generator: Sketch 47.1 (45422) - http://www.bohemiancoding.com/sketch -->
    <title>hommore-reversed-text</title>
    <desc>Created with Sketch.</desc>
    <defs></defs>
    <g id="User-Interface" stroke="none" stroke-width="1" fill="none" fill-rule="evenodd">
        <g id="Landing-Page" transform="translate(-14.000000, -377.000000)" fill="#F4F2F1">
            <g id="Flood" transform="translate(-288.000000, 0.000000)">
                <g id="Download" transform="translate(0.000000, 509.000000)">
                    <g id="hommore-reversed-text" transform="translate(22.000000, -132.000000)">
                        <path d="M35.1527457,81.6097514 L29.9,75.0451872 L29.9,77.9 C29.9,85.1 29.3,90.5 29.3,90.5 L29.9,90.5 C31.1803725,87.6482613 32.9349382,84.6271679 35.1527457,81.6097514 Z M29.9,75.0451872 L35.1527457,81.6097514 C44.3671815,69.0731403 61.5780736,56.6 86,56.6 C121.7,56.6 138.2,76.1 138.2,114.8 L138.2,212 L109.1,212 L109.1,121.4 C109.1,100.1 104.6,83.3 80.3,83.3 C57.5,83.3 38.6,98.9 32.3,120.8 C30.5,126.8 29.9,133.7 29.9,140.9 L29.9,212 L0.8,212 L0.8,0.2 L29.9,0.2 L29.9,75.0451872 Z M171.757895,135.8 C171.757895,89.9 208.357895,56.6 253.657895,56.6 C298.957895,56.6 335.557895,89.9 335.557895,135.8 C335.557895,182 298.957895,215.6 253.657895,215.6 C208.357895,215.6 171.757895,182 171.757895,135.8 Z M201.457895,135.8 C201.457895,167.6 225.157895,190.4 253.657895,190.4 C282.457895,190.4 305.857895,167.6 305.857895,135.8 C305.857895,104.3 282.457895,81.8 253.657895,81.8 C225.157895,81.8 201.457895,104.3 201.457895,135.8 Z M404.249605,82.5107169 L399.415789,77.95 L399.415789,80.3 C399.415789,86.3 398.815789,91.4 398.815789,91.4 L399.415789,91.4 C400.639136,88.3926059 402.269538,85.4025333 404.249605,82.5107169 Z M399.415789,77.95 L404.249605,82.5107169 C413.92321,68.3827656 431.942639,56.6 451.615789,56.6 C477.115789,56.6 492.115789,68.3 497.215789,91.1 L497.815789,91.1 C506.215789,72.8 527.215789,56.6 551.815789,56.6 C586.015789,56.6 601.915789,76.1 601.915789,114.8 L601.915789,212 L572.815789,212 L572.815789,121.1 C572.815789,99.8 568.615789,83 545.815789,83 C524.515789,83 508.615789,101 503.215789,121.7 C501.715789,128 501.115789,134.9 501.115789,142.7 L501.115789,212 L472.015789,212 L472.015789,121.1 C472.015789,101.3 469.015789,83 445.615789,83 C423.415789,83 407.815789,101.3 402.115789,122.9 C400.615789,128.9 400.315789,135.8 400.315789,142.7 L400.315789,212 L371.215789,212 L371.215789,60.2 L399.415789,60.2 L399.415789,77.95 Z M679.6075,82.5107169 L674.773684,77.95 L674.773684,80.3 C674.773684,86.3 674.173684,91.4 674.173684,91.4 L674.773684,91.4 C675.997031,88.3926059 677.627433,85.4025333 679.6075,82.5107169 Z M674.773684,77.95 L679.6075,82.5107169 C689.281105,68.3827656 707.300534,56.6 726.973684,56.6 C752.473684,56.6 767.473684,68.3 772.573684,91.1 L773.173684,91.1 C781.573684,72.8 802.573684,56.6 827.173684,56.6 C861.373684,56.6 877.273684,76.1 877.273684,114.8 L877.273684,212 L848.173684,212 L848.173684,121.1 C848.173684,99.8 843.973684,83 821.173684,83 C799.873684,83 783.973684,101 778.573684,121.7 C777.073684,128 776.473684,134.9 776.473684,142.7 L776.473684,212 L747.373684,212 L747.373684,121.1 C747.373684,101.3 744.373684,83 720.973684,83 C698.773684,83 683.173684,101.3 677.473684,122.9 C675.973684,128.9 675.673684,135.8 675.673684,142.7 L675.673684,212 L646.573684,212 L646.573684,60.2 L674.773684,60.2 L674.773684,77.95 Z M910.831579,135.8 C910.831579,89.9 947.431579,56.6 992.731579,56.6 C1038.03158,56.6 1074.63158,89.9 1074.63158,135.8 C1074.63158,182 1038.03158,215.6 992.731579,215.6 C947.431579,215.6 910.831579,182 910.831579,135.8 Z M940.531579,135.8 C940.531579,167.6 964.231579,190.4 992.731579,190.4 C1021.53158,190.4 1044.93158,167.6 1044.93158,135.8 C1044.93158,104.3 1021.53158,81.8 992.731579,81.8 C964.231579,81.8 940.531579,104.3 940.531579,135.8 Z M1142.13816,88.7224384 L1138.48947,82.6475 L1138.48947,86.6 C1138.48947,92.9 1137.88947,98 1137.88947,98 L1138.48947,98 C1139.48569,94.7947813 1140.70704,91.6896203 1142.13816,88.7224384 Z M1138.48947,82.6475 L1142.13816,88.7224384 C1150.61932,71.1383123 1166.46795,58.4 1186.48947,58.4 C1190.38947,58.4 1193.98947,59 1193.98947,59 L1193.98947,87.8 C1193.98947,87.8 1190.08947,86.9 1185.58947,86.9 C1166.98947,86.9 1149.88947,100.1 1142.98947,122.6 C1140.28947,131.3 1139.38947,140.6 1139.38947,149.9 L1139.38947,212 L1110.28947,212 L1110.28947,60.2 L1138.48947,60.2 L1138.48947,82.6475 Z M1212.54737,136.1 C1212.54737,87.8 1245.24737,56.6 1288.44737,56.6 C1331.34737,56.6 1354.14737,88.4 1354.14737,127.7 C1354.14737,131.6 1353.24737,140.3 1353.24737,140.3 L1242.54737,140.3 C1244.04737,173.6 1267.74737,190.4 1294.74737,190.4 C1320.84737,190.4 1339.74737,172.7 1339.74737,172.7 L1351.74737,194 C1351.74737,194 1329.24737,215.6 1292.94737,215.6 C1245.24737,215.6 1212.54737,181.1 1212.54737,136.1 Z M1243.44737,118.4 L1324.44737,118.4 C1323.54737,92.3 1307.34737,79.7 1287.84737,79.7 C1265.64737,79.7 1247.64737,93.5 1243.44737,118.4 Z" transform="translate(677.473684, 107.900000) scale(-1, 1) translate(-677.473684, -107.900000) "></path>
                    </g>
                </g>
            </g>
        </g>
    </g>
</svg>