<?xml version="1.0" encoding="UTF-8"?>
<svg width="20px" height="20px" viewBox="0 0 20 20" version="1.1" xmlns="http://www.w3.org/2000/svg" xmlns:xlink="http://www.w3.org/1999/xlink">
    <!-- Generator: Sketch 47.1 (45422) - http://www.bohemiancoding.com/sketch -->
    <title>instagram-icon</title>
    <desc>Created with Sketch.</desc>
    <defs>
        <path d="M10,1.80166667 C12.67,1.80166667 12.9866667,1.81166667 14.0408333,1.86 C15.1791667,1.91166667 16.235,2.14 17.0475,2.9525 C17.86,3.765 18.0883333,4.82083333 18.14,5.95916667 C18.1883333,7.01333333 18.1983333,7.33 18.1983333,10 C18.1983333,12.67 18.1883333,12.9866667 18.14,14.0408333 C18.0883333,15.1791667 17.86,16.235 17.0475,17.0475 C16.235,17.86 15.1791667,18.0883333 14.0408333,18.14 C12.9866667,18.1883333 12.67,18.1983333 10,18.1983333 C7.33,18.1983333 7.01333333,18.1883333 5.95916667,18.14 C4.82083333,18.0883333 3.765,17.86 2.9525,17.0475 C2.14,16.235 1.91166667,15.1791667 1.86,14.0408333 C1.81166667,12.9866667 1.80166667,12.67 1.80166667,10 C1.80166667,7.33 1.81166667,7.01333333 1.86,5.95916667 C1.91166667,4.82083333 2.14,3.765 2.9525,2.9525 C3.765,2.14 4.82083333,1.91166667 5.95916667,1.86 C7.01333333,1.81166667 7.33,1.80166667 10,1.80166667 L10,1.80166667 Z M10,0 C12.7158333,0 13.0566667,0.0116666667 14.1233333,0.06 C15.7483333,0.134166667 17.1758333,0.5325 18.3216667,1.67833333 C19.4675,2.82416667 19.8658333,4.25166667 19.94,5.87666667 C19.9883333,6.94333333 20,7.28416667 20,10 C20,12.7158333 19.9883333,13.0566667 19.94,14.1233333 C19.8658333,15.7483333 19.4675,17.1758333 18.3216667,18.3216667 C17.1758333,19.4675 15.7483333,19.8658333 14.1233333,19.94 C13.0566667,19.9883333 12.7158333,20 10,20 C7.28416667,20 6.94333333,19.9883333 5.87666667,19.94 C4.25166667,19.8658333 2.82416667,19.4675 1.67833333,18.3216667 C0.5325,17.1758333 0.134166667,15.7483333 0.06,14.1233333 C0.0116666667,13.0566667 0,12.7158333 0,10 C0,7.28416667 0.0116666667,6.94333333 0.06,5.87666667 C0.134166667,4.25166667 0.5325,2.82416667 1.67833333,1.67833333 C2.82416667,0.5325 4.25166667,0.134166667 5.87666667,0.06 C6.94333333,0.0116666667 7.28416667,0 10,0 Z M10,4.865 C7.16416667,4.865 4.865,7.16416667 4.865,10 C4.865,12.8358333 7.16416667,15.135 10,15.135 C12.8358333,15.135 15.135,12.8358333 15.135,10 C15.135,7.16416667 12.8358333,4.865 10,4.865 Z M10,13.3333333 C8.15916667,13.3333333 6.66666667,11.8408333 6.66666667,10 C6.66666667,8.15916667 8.15916667,6.66666667 10,6.66666667 C11.8408333,6.66666667 13.3333333,8.15916667 13.3333333,10 C13.3333333,11.8408333 11.8408333,13.3333333 10,13.3333333 Z M15.3383333,5.86166667 C16.001075,5.86166667 16.5383333,5.32440837 16.5383333,4.66166667 C16.5383333,3.99892497 16.001075,3.46166667 15.3383333,3.46166667 C14.6755916,3.46166667 14.1383333,3.99892497 14.1383333,4.66166667 C14.1383333,5.32440837 14.6755916,5.86166667 15.3383333,5.86166667 Z" id="path-1"></path>
    </defs>
    <g id="User-Interface" stroke="none" stroke-width="1" fill="none" fill-rule="evenodd">
        <g id="Landing-Page" transform="translate(-1360.000000, -3650.000000)">
            <g id="Footer" transform="translate(0.000000, 3158.000000)">
                <g id="Social_icons" transform="translate(1162.000000, 492.000000)">
                    <g id="instagram-icon" transform="translate(198.000000, 0.000000)">
                        <mask id="mask-2" fill="white">
                            <use xlink:href="#path-1"></use>
                        </mask>
                        <use id="Mask" fill="#626883" xlink:href="#path-1"></use>
                    </g>
                </g>
            </g>
        </g>
    </g>
</svg>