<?xml version="1.0" encoding="UTF-8"?>
<svg width="1225px" height="293px" viewBox="0 0 1225 293" version="1.1" xmlns="http://www.w3.org/2000/svg" xmlns:xlink="http://www.w3.org/1999/xlink">
    <!-- Generator: Sketch 47.1 (45422) - http://www.bohemiancoding.com/sketch -->
    <title>Pattern</title>
    <desc>Created with Sketch.</desc>
    <defs></defs>
    <g id="User-Interface" stroke="none" stroke-width="1" fill="none" fill-rule="evenodd">
        <g id="Landing-Page" transform="translate(-85.000000, -2919.000000)" fill="#FFFFFF">
            <g id="Subscribe" transform="translate(59.000000, 2883.000000)">
                <g id="Pattern" transform="translate(26.000000, 36.000000)">
                    <g id="Group-4" transform="translate(0.000000, 1.000000)">
                        <g id="Group" transform="translate(172.000000, 14.040954)">
                            <rect id="Rectangle-path" x="0" y="0.9" width="2" height="4"></rect>
                            <rect id="Rectangle-path" x="0" y="10.9" width="2" height="4"></rect>
                        </g>
                        <g id="Group" transform="translate(166.000000, 20.040954)">
                            <rect id="Rectangle-path" x="10" y="0.9" width="4" height="2"></rect>
                            <rect id="Rectangle-path" x="0" y="0.9" width="4" height="2"></rect>
                        </g>
                        <g id="Group" transform="translate(17.000000, 122.040954)">
                            <rect id="Rectangle-path" x="0.9" y="0.9" width="2" height="4"></rect>
                            <rect id="Rectangle-path" x="0.9" y="10.9" width="2" height="4"></rect>
                        </g>
                        <g id="Group" transform="translate(11.000000, 128.040954)">
                            <rect id="Rectangle-path" x="10.9" y="0.9" width="4" height="2"></rect>
                            <rect id="Rectangle-path" x="0.9" y="0.9" width="4" height="2"></rect>
                        </g>
                        <path d="M104.9,54.940954 L102.9,54.940954 L102.9,52.940954 L104.9,52.940954 L104.9,54.940954 Z M100.9,54.940954 L98.9,54.940954 L98.9,52.940954 L100.9,52.940954 L100.9,54.940954 Z M96.9,54.940954 L94.9,54.940954 L94.9,52.940954 L96.9,52.940954 L96.9,54.940954 Z M92.9,54.940954 L90.9,54.940954 L90.9,52.940954 L92.9,52.940954 L92.9,54.940954 Z" id="Shape"></path>
                        <circle id="Oval" cx="146" cy="2.040954" r="2"></circle>
                        <circle id="Oval" cx="2" cy="10.040954" r="2"></circle>
                        <circle id="Oval" cx="137" cy="131.040954" r="1"></circle>
                        <path d="M297.8,89.540954 L299.1,92.140954 L302,92.540954 C302.5,92.640954 302.9,93.140954 302.8,93.640954 C302.8,93.840954 302.7,94.040954 302.5,94.240954 L300.4,96.240954 L300.9,99.040954 C301,99.540954 300.6,100.040954 300.1,100.140954 C299.9,100.140954 299.7,100.140954 299.5,100.040954 L296.9,98.740954 L294.3,100.040954 C293.8,100.240954 293.2,100.140954 293,99.640954 C292.9,99.440954 292.9,99.240954 292.9,99.040954 L293.4,96.240954 L291.3,94.240954 C290.9,93.840954 290.9,93.240954 291.3,92.840954 C291.4,92.640954 291.6,92.540954 291.9,92.540954 L294.8,92.140954 L296.1,89.540954 C296.3,89.040954 296.9,88.840954 297.4,89.140954 C297.6,89.240954 297.7,89.340954 297.8,89.540954 Z" id="Shape"></path>
                    </g>
                    <g id="Group-4-Copy" transform="translate(355.500000, 202.000000) scale(-1, 1) translate(-355.500000, -202.000000) translate(89.000000, 110.000000)">
                        <g id="Group" transform="translate(442.000000, 60.040954)">
                            <rect id="Rectangle-path" x="0" y="0.9" width="2" height="4"></rect>
                            <rect id="Rectangle-path" x="0" y="10.9" width="2" height="4"></rect>
                        </g>
                        <g id="Group" transform="translate(436.000000, 66.040954)">
                            <rect id="Rectangle-path" x="10" y="0.9" width="4" height="2"></rect>
                            <rect id="Rectangle-path" x="0" y="0.9" width="4" height="2"></rect>
                        </g>
                        <g id="Group" transform="translate(287.000000, 168.040954)">
                            <rect id="Rectangle-path" x="0.9" y="0.9" width="2" height="4"></rect>
                            <rect id="Rectangle-path" x="0.9" y="10.9" width="2" height="4"></rect>
                        </g>
                        <g id="Group" transform="translate(281.000000, 174.040954)">
                            <rect id="Rectangle-path" x="10.9" y="0.9" width="4" height="2"></rect>
                            <rect id="Rectangle-path" x="0.9" y="0.9" width="4" height="2"></rect>
                        </g>
                        <path d="M214.9,2.940954 L212.9,2.940954 L212.9,0.940953996 L214.9,0.940953996 L214.9,2.940954 Z M210.9,2.940954 L208.9,2.940954 L208.9,0.940953996 L210.9,0.940953996 L210.9,2.940954 Z M206.9,2.940954 L204.9,2.940954 L204.9,0.940953996 L206.9,0.940953996 L206.9,2.940954 Z M202.9,2.940954 L200.9,2.940954 L200.9,0.940953996 L202.9,0.940953996 L202.9,2.940954 Z" id="Shape"></path>
                        <circle id="Oval" cx="531" cy="144" r="2"></circle>
                        <circle id="Oval" cx="2" cy="66.040954" r="2"></circle>
                        <circle id="Oval" cx="407" cy="177.040954" r="1"></circle>
                    </g>
                    <g id="Group-4-Copy-3" transform="translate(1042.000000, 88.500000) scale(-1, 1) translate(-1042.000000, -88.500000) translate(859.000000, 0.000000)">
                        <g id="Group" transform="translate(294.000000, 8.040954)">
                            <rect id="Rectangle-path" x="0" y="0.9" width="2" height="4"></rect>
                            <rect id="Rectangle-path" x="0" y="10.9" width="2" height="4"></rect>
                        </g>
                        <g id="Group" transform="translate(288.000000, 14.040954)">
                            <rect id="Rectangle-path" x="10" y="0.9" width="4" height="2"></rect>
                            <rect id="Rectangle-path" x="0" y="0.9" width="4" height="2"></rect>
                        </g>
                        <g id="Group" transform="translate(139.000000, 116.040954)">
                            <rect id="Rectangle-path" x="0.9" y="0.9" width="2" height="4"></rect>
                            <rect id="Rectangle-path" x="0.9" y="10.9" width="2" height="4"></rect>
                        </g>
                        <g id="Group" transform="translate(133.000000, 122.040954)">
                            <rect id="Rectangle-path" x="10.9" y="0.9" width="4" height="2"></rect>
                            <rect id="Rectangle-path" x="0.9" y="0.9" width="4" height="2"></rect>
                        </g>
                        <path d="M166.9,84.940954 L164.9,84.940954 L164.9,82.940954 L166.9,82.940954 L166.9,84.940954 Z M162.9,84.940954 L160.9,84.940954 L160.9,82.940954 L162.9,82.940954 L162.9,84.940954 Z M158.9,84.940954 L156.9,84.940954 L156.9,82.940954 L158.9,82.940954 L158.9,84.940954 Z M154.9,84.940954 L152.9,84.940954 L152.9,82.940954 L154.9,82.940954 L154.9,84.940954 Z" id="Shape"></path>
                        <circle id="Oval" cx="232" cy="23" r="2"></circle>
                        <circle id="Oval" cx="2" cy="8" r="2"></circle>
                        <circle id="Oval" cx="209" cy="175.040954" r="1"></circle>
                        <path d="M360.8,0.540953996 L362.1,3.140954 L365,3.540954 C365.5,3.640954 365.9,4.140954 365.8,4.640954 C365.8,4.840954 365.7,5.040954 365.5,5.240954 L363.4,7.240954 L363.9,10.040954 C364,10.540954 363.6,11.040954 363.1,11.140954 C362.9,11.140954 362.7,11.140954 362.5,11.040954 L359.9,9.740954 L357.3,11.040954 C356.8,11.240954 356.2,11.140954 356,10.640954 C355.9,10.440954 355.9,10.240954 355.9,10.040954 L356.4,7.240954 L354.3,5.240954 C353.9,4.840954 353.9,4.240954 354.3,3.840954 C354.4,3.640954 354.6,3.540954 354.9,3.540954 L357.8,3.140954 L359.1,0.540953996 C359.3,0.0409539964 359.9,-0.159046004 360.4,0.140953996 C360.6,0.240953996 360.7,0.340953996 360.8,0.540953996 Z" id="Shape"></path>
                    </g>
                </g>
            </g>
        </g>
    </g>
</svg>