<?xml version="1.0" encoding="UTF-8"?>
<svg width="50px" height="92px" viewBox="0 0 50 92" version="1.1" xmlns="http://www.w3.org/2000/svg" xmlns:xlink="http://www.w3.org/1999/xlink">
    <!-- Generator: Sketch 47.1 (45422) - http://www.bohemiancoding.com/sketch -->
    <title>report-icon</title>
    <desc>Created with Sketch.</desc>
    <defs></defs>
    <g id="User-Interface" stroke="none" stroke-width="1" fill="none" fill-rule="evenodd">
        <g id="Landing-Page" transform="translate(-1111.000000, -1801.000000)">
            <g id="Feature_2" transform="translate(121.000000, 1723.000000)">
                <g id="3" transform="translate(832.000000, 0.000000)">
                    <g id="Content" transform="translate(24.000000, 78.500000)">
                        <g id="report-icon" transform="translate(134.000000, 0.000000)">
                            <path d="M48.4375,44 C47.575,44 46.875,44.7003 46.875,45.5666667 L46.875,54.9666667 C46.875,67.0613333 37.0625,76.9 25,76.9 C12.9375,76.9 3.125,67.0613333 3.125,54.9666667 L3.125,45.5666667 C3.125,44.7003 2.425,44 1.5625,44 C0.7,44 0,44.7003 0,45.5666667 L0,54.9666667 C0,68.2598333 10.38125,79.1387667 23.4375,79.9534333 L23.4375,87.8666667 L15.625,87.8666667 C14.7625,87.8666667 14.0625,88.5669667 14.0625,89.4333333 C14.0625,90.2997 14.7625,91 15.625,91 L34.375,91 C35.2375,91 35.9375,90.2997 35.9375,89.4333333 C35.9375,88.5669667 35.2375,87.8666667 34.375,87.8666667 L26.5625,87.8666667 L26.5625,79.9534333 C39.61875,79.1387667 50,68.2582667 50,54.9666667 L50,45.5666667 C50,44.7003 49.3,44 48.4375,44 Z" id="Shape" fill="#FF6B6B"></path>
                            <path d="M25,72 C34.3731818,72 42,64.2756522 42,54.7826087 L42,17.2173913 C42,7.72434783 34.3731818,0 25,0 C15.6268182,0 8,7.72434783 8,17.2173913 L8,54.7826087 C8,64.2756522 15.6268182,72 25,72 Z M14.9066364,7.55373913 C15.1477273,7.71182609 15.4181818,7.82608696 15.7272727,7.82608696 C16.5803636,7.82608696 17.2727273,7.12486957 17.2727273,6.26086957 C17.2727273,6.02921739 17.2170909,5.81321739 17.1274545,5.616 C19.3683636,4.05234783 22.0790909,3.13043478 25,3.13043478 C27.9209091,3.13043478 30.6316364,4.05234783 32.8725455,5.616 C32.7829091,5.81321739 32.7272727,6.02921739 32.7272727,6.26086957 C32.7272727,7.12486957 33.4196364,7.82608696 34.2727273,7.82608696 C34.5818182,7.82608696 34.8522727,7.71182609 35.0933636,7.55373913 C36.0051818,8.52886957 36.7779091,9.63391304 37.3868182,10.8406957 C37.3837273,10.8813913 37.3636364,10.9158261 37.3636364,10.9565217 C37.3636364,11.4558261 37.6093636,11.8815652 37.9694545,12.168 C38.5675455,13.737913 38.9090909,15.4361739 38.9090909,17.2173913 L38.9090909,18.7826087 C38.056,18.7826087 37.3636364,19.4838261 37.3636364,20.3478261 C37.3636364,21.2118261 38.056,21.9130435 38.9090909,21.9130435 L38.9090909,28.173913 C38.056,28.173913 37.3636364,28.8751304 37.3636364,29.7391304 C37.3636364,30.6031304 38.056,31.3043478 38.9090909,31.3043478 L38.9090909,37.5652174 C38.056,37.5652174 37.3636364,38.2664348 37.3636364,39.1304348 C37.3636364,39.9944348 38.056,40.6956522 38.9090909,40.6956522 L38.9090909,46.9565217 C38.056,46.9565217 37.3636364,47.6577391 37.3636364,48.5217391 C37.3636364,49.3857391 38.056,50.0869565 38.9090909,50.0869565 L38.9090909,54.7826087 C38.9090909,55.3194783 38.8735455,55.8453913 38.8148182,56.3666087 C38.0080909,56.4182609 37.3636364,57.081913 37.3636364,57.9130435 C37.3636364,58.5031304 37.699,58.9977391 38.175,59.2653913 C36.9911818,62.8215652 34.4458182,65.7406957 31.1648182,67.392 C31.1663636,67.3606957 31.1818182,67.3356522 31.1818182,67.3043478 C31.1818182,66.4403478 30.4894545,65.7391304 29.6363636,65.7391304 C28.7832727,65.7391304 28.0909091,66.4403478 28.0909091,67.3043478 C28.0909091,67.7285217 28.2609091,68.1104348 28.5313636,68.3921739 C27.4016364,68.6926957 26.2224545,68.8695652 25,68.8695652 C23.7775455,68.8695652 22.5983636,68.6926957 21.4686364,68.3921739 C21.7390909,68.1104348 21.9090909,67.7285217 21.9090909,67.3043478 C21.9090909,66.4403478 21.2167273,65.7391304 20.3636364,65.7391304 C19.5105455,65.7391304 18.8181818,66.4403478 18.8181818,67.3043478 C18.8181818,67.3356522 18.8336364,67.3606957 18.8351818,67.392 C15.5541818,65.7391304 13.0072727,62.8215652 11.825,59.2653913 C12.301,58.9977391 12.6363636,58.5031304 12.6363636,57.9130435 C12.6363636,57.081913 11.9919091,56.4182609 11.1851818,56.3666087 C11.1264545,55.8453913 11.0909091,55.3194783 11.0909091,54.7826087 L11.0909091,50.0869565 C11.944,50.0869565 12.6363636,49.3857391 12.6363636,48.5217391 C12.6363636,47.6577391 11.944,46.9565217 11.0909091,46.9565217 L11.0909091,40.6956522 C11.944,40.6956522 12.6363636,39.9944348 12.6363636,39.1304348 C12.6363636,38.2664348 11.944,37.5652174 11.0909091,37.5652174 L11.0909091,31.3043478 C11.944,31.3043478 12.6363636,30.6031304 12.6363636,29.7391304 C12.6363636,28.8751304 11.944,28.173913 11.0909091,28.173913 L11.0909091,21.9130435 C11.944,21.9130435 12.6363636,21.2118261 12.6363636,20.3478261 C12.6363636,19.4838261 11.944,18.7826087 11.0909091,18.7826087 L11.0909091,17.2173913 C11.0909091,15.4361739 11.4324545,13.737913 12.0305455,12.168 C12.3906364,11.8815652 12.6363636,11.4558261 12.6363636,10.9565217 C12.6363636,10.9158261 12.6162727,10.8813913 12.6131818,10.8406957 C13.2220909,9.63391304 13.9948182,8.52886957 14.9066364,7.55373913 Z" id="Shape" fill="#2F313D"></path>
                            <circle id="Oval" fill="#2F313D" cx="24.5" cy="6.5" r="1.5"></circle>
                            <circle id="Oval" fill="#2F313D" cx="20.5" cy="10.5" r="1.5"></circle>
                            <circle id="Oval" fill="#2F313D" cx="20.5" cy="20.5" r="1.5"></circle>
                            <circle id="Oval" fill="#2F313D" cx="15.5" cy="15.5" r="1.5"></circle>
                            <circle id="Oval" fill="#2F313D" cx="24.5" cy="15.5" r="1.5"></circle>
                            <circle id="Oval" fill="#2F313D" cx="15.5" cy="24.5" r="1.5"></circle>
                            <circle id="Oval" fill="#2F313D" cx="24.5" cy="24.5" r="1.5"></circle>
                            <circle id="Oval" fill="#2F313D" cx="29.5" cy="10.5" r="1.5"></circle>
                            <circle id="Oval" fill="#2F313D" cx="29.5" cy="20.5" r="1.5"></circle>
                            <circle id="Oval" fill="#2F313D" cx="34.5" cy="15.5" r="1.5"></circle>
                            <circle id="Oval" fill="#2F313D" cx="34.5" cy="24.5" r="1.5"></circle>
                            <circle id="Oval" fill="#2F313D" cx="20.5" cy="29.5" r="1.5"></circle>
                            <circle id="Oval" fill="#2F313D" cx="20.5" cy="39.5" r="1.5"></circle>
                            <circle id="Oval" fill="#2F313D" cx="15.5" cy="34.5" r="1.5"></circle>
                            <circle id="Oval" fill="#2F313D" cx="24.5" cy="34.5" r="1.5"></circle>
                            <circle id="Oval" fill="#2F313D" cx="15.5" cy="43.5" r="1.5"></circle>
                            <circle id="Oval" fill="#2F313D" cx="24.5" cy="43.5" r="1.5"></circle>
                            <circle id="Oval" fill="#2F313D" cx="29.5" cy="29.5" r="1.5"></circle>
                            <circle id="Oval" fill="#2F313D" cx="29.5" cy="39.5" r="1.5"></circle>
                            <circle id="Oval" fill="#2F313D" cx="34.5" cy="34.5" r="1.5"></circle>
                            <circle id="Oval" fill="#2F313D" cx="34.5" cy="43.5" r="1.5"></circle>
                            <circle id="Oval" fill="#2F313D" cx="20.5" cy="48.5" r="1.5"></circle>
                            <circle id="Oval" fill="#2F313D" cx="20.5" cy="57.5" r="1.5"></circle>
                            <circle id="Oval" fill="#2F313D" cx="15.5" cy="53.5" r="1.5"></circle>
                            <circle id="Oval" fill="#2F313D" cx="24.5" cy="53.5" r="1.5"></circle>
                            <circle id="Oval" fill="#2F313D" cx="15.5" cy="62.5" r="1.5"></circle>
                            <circle id="Oval" fill="#2F313D" cx="24.5" cy="62.5" r="1.5"></circle>
                            <circle id="Oval" fill="#2F313D" cx="29.5" cy="48.5" r="1.5"></circle>
                            <circle id="Oval" fill="#2F313D" cx="29.5" cy="57.5" r="1.5"></circle>
                            <circle id="Oval" fill="#2F313D" cx="34.5" cy="53.5" r="1.5"></circle>
                            <circle id="Oval" fill="#2F313D" cx="34.5" cy="62.5" r="1.5"></circle>
                        </g>
                    </g>
                </g>
            </g>
        </g>
    </g>
</svg>