<?xml version="1.0" encoding="UTF-8"?>
<svg width="94px" height="92px" viewBox="0 0 94 92" version="1.1" xmlns="http://www.w3.org/2000/svg" xmlns:xlink="http://www.w3.org/1999/xlink">
    <!-- Generator: Sketch 47.1 (45422) - http://www.bohemiancoding.com/sketch -->
    <title>resources-icon</title>
    <desc>Created with Sketch.</desc>
    <defs></defs>
    <g id="User-Interface" stroke="none" stroke-width="1" fill="none" fill-rule="evenodd">
        <g id="Landing-Page" transform="translate(-257.000000, -1802.000000)">
            <g id="Feature_2" transform="translate(121.000000, 1723.000000)">
                <g id="1">
                    <g id="Content" transform="translate(24.000000, 79.000000)">
                        <g id="resources-icon" transform="translate(112.000000, 0.000000)">
                            <circle id="Oval" fill="#FF6B6B" cx="76.9449818" cy="43.1420121" r="1.70909091"></circle>
                            <circle id="Oval" fill="#FF6B6B" cx="15.4177091" cy="43.1420121" r="1.70909091"></circle>
                            <circle id="Oval" fill="#FF6B6B" cx="20.5449818" cy="48.2692848" r="1.70909091"></circle>
                            <circle id="Oval" fill="#FF6B6B" cx="30.7995273" cy="48.2692848" r="1.70909091"></circle>
                            <circle id="Oval" fill="#FF6B6B" cx="25.6722545" cy="53.3965576" r="1.70909091"></circle>
                            <circle id="Oval" fill="#FF6B6B" cx="35.9268" cy="53.3965576" r="1.70909091"></circle>
                            <circle id="Oval" fill="#FF6B6B" cx="41.0540727" cy="58.5238303" r="1.70909091"></circle>
                            <circle id="Oval" fill="#FF6B6B" cx="51.3086182" cy="58.5238303" r="1.70909091"></circle>
                            <circle id="Oval" fill="#FF6B6B" cx="56.4358909" cy="53.3965576" r="1.70909091"></circle>
                            <circle id="Oval" fill="#FF6B6B" cx="46.1813455" cy="63.651103" r="1.70909091"></circle>
                            <circle id="Oval" fill="#FF6B6B" cx="61.5631636" cy="48.2692848" r="1.70909091"></circle>
                            <circle id="Oval" fill="#FF6B6B" cx="71.8177091" cy="48.2692848" r="1.70909091"></circle>
                            <circle id="Oval" fill="#FF6B6B" cx="66.6904364" cy="53.3965576" r="1.70909091"></circle>
                            <path d="M77.8644727,54.7980121 L93.9196727,45.6253212 L77.4166909,36.2543758 L93.9196727,26.8253212 L46.9606909,0.158375758 L0,26.8253212 L16.5029818,36.2543758 L0,45.6253212 L16.5029818,55.0543758 L0,64.4253212 L46.9606909,91.2546303 L93.9213818,64.4253212 L77.4184,55.0543758 L77.5397455,54.984303 C77.6593818,54.9398667 77.7585091,54.8680848 77.8644727,54.7980121 Z M46.9606909,4.08757576 L87.0149455,26.8338667 L73.9626182,34.2923394 L73.9626182,34.2923394 L46.9624,49.7185939 L6.90643636,26.8338667 L46.9606909,4.08757576 Z M19.0204727,38.7547758 C19.2973455,39.323903 19.8698909,39.7238303 20.5449818,39.7238303 C21.0064364,39.7238303 21.4200364,39.5375394 21.7276727,39.2401576 L25.5936364,41.448303 C24.6878182,41.4910303 23.9631636,42.2259394 23.9631636,43.1420121 C23.9631636,44.0854303 24.7288364,44.851103 25.6722545,44.851103 C26.6156727,44.851103 27.3813455,44.0854303 27.3813455,43.1420121 C27.3813455,42.8463394 27.2873455,42.5831394 27.1557455,42.3404485 L44.8106545,52.427503 C44.6124,52.7060848 44.4722545,53.029103 44.4722545,53.3965576 C44.4722545,54.3399758 45.2379273,55.1056485 46.1813455,55.1056485 C47.1247636,55.1056485 47.8904364,54.3399758 47.8904364,53.3965576 C47.8904364,53.3093939 47.8545455,53.235903 47.8408727,53.1521576 L65.0206545,43.3368485 C65.1214909,44.1845576 65.8153818,44.8493939 66.6904364,44.8493939 C67.6338545,44.8493939 68.3995273,44.0837212 68.3995273,43.140303 C68.3995273,42.5848485 68.1175273,42.1131394 67.7056364,41.8020848 L71.4690545,39.6520485 C71.5852727,39.6776848 71.6946545,39.7221212 71.8177091,39.7221212 C72.5765455,39.7221212 73.1969455,39.2196485 73.4208364,38.5360121 L73.9677455,38.2232485 L87.0149455,45.6321576 L83.6258182,47.5685576 C83.3574909,46.975503 82.7661455,46.5584848 82.0739636,46.5584848 C81.1305455,46.5584848 80.3648727,47.3241576 80.3648727,48.2675758 C80.3648727,48.6367394 80.5067273,48.9597576 80.7049818,49.2383394 L73.9626182,53.0906303 L73.9626182,53.0906303 L63.0449455,59.3288121 C63.1782545,59.0861212 63.2739636,58.819503 63.2739636,58.5221212 C63.2739636,57.578703 62.5082909,56.8130303 61.5648727,56.8130303 C60.6214545,56.8130303 59.8557818,57.578703 59.8557818,58.5221212 C59.8557818,59.439903 60.5838545,60.1748121 61.4913818,60.2158303 L57.6237091,62.4256848 C57.3160727,62.128303 56.9007636,61.940303 56.4376,61.940303 C55.4941818,61.940303 54.7285091,62.7059758 54.7285091,63.6493939 C54.7285091,63.7861212 54.7763636,63.9074667 54.8071273,64.0356485 L46.9624,68.5168848 L37.5333455,63.1298303 C37.3111636,62.4444848 36.6890545,61.940303 35.9285091,61.940303 C35.8037455,61.940303 35.6926545,61.9864485 35.5764364,62.0120848 L31.8147273,59.8637576 C32.2266182,59.5509939 32.5103273,59.0809939 32.5103273,58.5238303 C32.5103273,57.5804121 31.7446545,56.8147394 30.8012364,56.8147394 C29.9261818,56.8147394 29.2305818,57.4829939 29.1314545,58.330703 L11.9482545,48.5153939 C11.9602182,48.4316485 11.9978182,48.3564485 11.9978182,48.2692848 C11.9978182,47.3258667 11.2321455,46.5601939 10.2887273,46.5601939 C9.88025455,46.5601939 9.52134545,46.7225576 9.22738182,46.9618303 L6.90472727,45.6355758 L19.0204727,38.7547758 Z M87.0132364,64.4338667 L46.9589818,87.3185939 L6.90643636,64.4338667 L19.9519273,57.0249576 L46.9606909,72.4546303 L73.9677455,57.0249576 L87.0132364,64.4338667 Z" id="Shape" fill="#2F313D"></path>
                        </g>
                    </g>
                </g>
            </g>
        </g>
    </g>
</svg>