<?xml version="1.0" encoding="UTF-8"?>
<svg width="68px" height="68px" viewBox="0 0 68 68" version="1.1" xmlns="http://www.w3.org/2000/svg" xmlns:xlink="http://www.w3.org/1999/xlink">
    <!-- Generator: Sketch 47.1 (45422) - http://www.bohemiancoding.com/sketch -->
    <title>search-icon</title>
    <desc>Created with Sketch.</desc>
    <defs></defs>
    <g id="User-Interface" stroke="none" stroke-width="1" fill="none" fill-rule="evenodd">
        <g id="Resources-Page" transform="translate(-270.000000, -605.000000)" fill="#2F313D">
            <g id="Feature_1" transform="translate(121.000000, 207.000000)">
                <g id="Description" transform="translate(0.000000, 347.000000)">
                    <g id="1">
                        <g id="Content" transform="translate(24.000000, 51.000000)">
                            <g id="search-icon" transform="translate(125.000000, 0.000000)">
                                <path d="M52.0917969,28.7142857 C52.0917969,22.3430804 49.82747,16.8931987 45.2987484,12.364477 C40.7700268,7.83575542 35.3201451,5.57142857 28.9489397,5.57142857 C22.5777344,5.57142857 17.1278527,7.83575542 12.5991311,12.364477 C8.07040944,16.8931987 5.80608259,22.3430804 5.80608259,28.7142857 C5.80608259,35.085491 8.07040944,40.5353728 12.5991311,45.0640944 C17.1278527,49.592816 22.5777344,51.8571429 28.9489397,51.8571429 C35.3201451,51.8571429 40.7700268,49.592816 45.2987484,45.0640944 C49.82747,40.5353728 52.0917969,35.085491 52.0917969,28.7142857 Z M67.5203683,62.1428571 C67.5203683,63.5357213 67.0114448,64.7410663 65.9935826,65.7589286 C64.9757204,66.7767908 63.7703753,67.2857143 62.3775112,67.2857143 C60.9310754,67.2857143 59.7257303,66.7767908 58.7614397,65.7589286 L44.9801897,52.0178571 C40.1855229,55.3393023 34.8418263,57 28.9489397,57 C25.1185634,57 21.4556536,56.2567039 17.9601004,54.7700893 C14.4645473,53.2834747 11.4511845,51.2745662 8.91992187,48.7433036 C6.38865922,46.2120409 4.37975074,43.1986782 2.89313616,39.703125 C1.40652158,36.2075718 0.663225446,32.544662 0.663225446,28.7142857 C0.663225446,24.8839094 1.40652158,21.2209996 2.89313616,17.7254464 C4.37975074,14.2298932 6.38865922,11.2165305 8.91992187,8.68526786 C11.4511845,6.1540052 14.4645473,4.14509672 17.9601004,2.65848214 C21.4556536,1.17186757 25.1185634,0.428571429 28.9489397,0.428571429 C32.779316,0.428571429 36.4422258,1.17186757 39.937779,2.65848214 C43.4333322,4.14509672 46.4466949,6.1540052 48.9779576,8.68526786 C51.5092202,11.2165305 53.5181287,14.2298932 55.0047433,17.7254464 C56.4913579,21.2209996 57.234654,24.8839094 57.234654,28.7142857 C57.234654,34.6071723 55.5739563,39.9508689 52.2525112,44.7455357 L66.0337612,58.5267857 C67.0248375,59.5178621 67.5203683,60.7232072 67.5203683,62.1428571 Z" id=""></path>
                            </g>
                        </g>
                    </g>
                </g>
            </g>
        </g>
    </g>
</svg>