<?xml version="1.0" encoding="UTF-8"?>
<svg width="24px" height="40px" viewBox="0 0 24 40" version="1.1" xmlns="http://www.w3.org/2000/svg" xmlns:xlink="http://www.w3.org/1999/xlink">
    <!-- Generator: Sketch 47.1 (45422) - http://www.bohemiancoding.com/sketch -->
    <title>walking-icon</title>
    <desc>Created with Sketch.</desc>
    <defs>
        <polygon id="path-1" points="0.0904729337 0.181176471 6.82130234 0.181176471 6.82130234 6.90647104 0.0904729337 6.90647104 0.0904729337 0.181176471"></polygon>
    </defs>
    <g id="User-Interface" stroke="none" stroke-width="1" fill="none" fill-rule="evenodd">
        <g id="Map-Page" transform="translate(-600.000000, -1174.000000)">
            <g id="Feature_1" transform="translate(121.000000, 199.000000)">
                <g id="Description" transform="translate(0.000000, 225.000000)">
                    <g id="1-copy" transform="translate(308.000000, 570.000000)">
                        <g id="Content" transform="translate(24.000000, 51.000000)">
                            <g id="walking-icon" transform="translate(147.000000, 129.000000)">
                                <path d="M8.98902765,22.1538195 C8.99856554,19.7851007 8.99275987,17.416382 8.99234517,15.0472314 L8.99234517,14.096289 C8.96663433,14.0936979 8.94133817,14.0915387 8.91562733,14.0889475 C8.88867241,14.2608254 8.85259429,14.4322714 8.83725072,14.6054448 C8.77670582,15.2817281 8.67800935,15.9489424 8.34791526,16.5492193 C7.61598552,17.8806249 6.87576197,19.2068483 6.14010002,20.5365265 C5.48571752,21.7198063 4.83092032,22.9026541 4.18151411,24.0889569 C3.88832753,24.6244557 3.56362442,24.738897 3.05272503,24.4409178 C2.497039,24.1165955 1.94798803,23.7793176 1.40349866,23.4359937 C0.987978207,23.1738584 0.890525807,22.8016003 1.12441157,22.3753605 C1.59093902,21.5241764 2.06824844,20.679902 2.5389228,19.8317409 C3.43341143,18.2213577 4.32707068,16.6105426 5.22031523,14.9992956 C6.21723256,13.1997603 7.20917359,11.3972021 8.21314066,9.60155347 C8.55567548,8.98918461 8.89945438,8.88942636 9.56005724,9.10103478 C10.8613578,9.51820566 12.1676347,9.91982981 13.4743262,10.3188628 C14.037062,10.4907407 14.3522272,10.8336327 14.3489097,11.4900507 C14.3331514,15.0433447 14.3422746,18.5966387 14.3406159,22.1495009 C14.3406159,22.6500196 14.4986132,23.0836009 14.8345129,23.4377211 C15.6717742,24.3195669 16.5260378,25.1837065 17.3508583,26.0776442 C17.8663193,26.636895 18.4261522,27.1823265 18.8138884,27.8322666 C19.4637093,28.9222659 19.9932698,30.0908626 20.5709344,31.2275021 C21.6872828,33.4230474 22.8019724,35.6190246 23.9162473,37.8154336 C24.0883441,38.154439 23.9884035,38.5906114 23.679044,38.7832183 C23.0839623,39.1541808 22.4863925,39.5216885 21.8788701,39.8693309 C21.4289303,40.1267158 21.1137651,39.9993189 20.8711708,39.5273026 C20.1035776,38.0352473 19.3301788,36.5466468 18.5588534,35.056319 C17.8418525,33.6713634 17.1240223,32.2868398 16.4070214,30.9018843 C16.0785861,30.267059 15.7953521,29.5981173 15.2798911,29.0937119 C13.3918027,27.2462409 11.498738,25.4030883 9.60235573,23.5642543 C9.20508169,23.1786088 8.9865395,22.7329356 8.98902765,22.1538195" id="Fill-1" fill="#FF6B6B"></path>
                                <path d="M0.126987158,37.7170393 C1.01683718,36.0553222 1.90255028,34.3918221 2.7924003,32.7301051 C2.98931737,32.3623699 3.19699041,32.0017666 3.35791633,31.7124816 C3.37611875,31.716939 3.39349378,31.7227336 3.41128251,31.7276368 L3.60902696,31.3674792 C3.70665811,31.1125162 3.81752738,30.8611191 3.94328954,30.6208655 C4.40786488,29.731615 4.8786456,28.8463763 5.35190847,27.9624747 C5.99561215,26.7607609 6.6409706,25.5603842 7.29170704,24.3631278 C7.52544263,23.9329891 7.86094629,23.8830663 8.20761961,24.2236113 C8.71976946,24.7264055 9.22695501,25.2354401 9.73000365,25.7484863 C10.0191739,26.0435659 10.0828823,26.539674 9.88803373,26.9056262 C8.98784143,28.5963164 8.08847651,30.2874523 7.18497468,31.975468 C5.8313767,34.5041485 4.47322811,37.0297089 3.11963013,39.5579436 C2.87596595,40.0139352 2.48544134,40.1240329 2.06182144,39.8561434 C1.51492152,39.509358 0.963057305,39.170596 0.411193091,38.8327254 C-0.00994466772,38.5755336 -0.112953805,38.1650075 0.126987158,37.7170393" id="Fill-3" fill="#FF6B6B"></path>
                                <g id="Group-7" transform="translate(10.000000, 0.000000)">
                                    <mask id="mask-2" fill="white">
                                        <use xlink:href="#path-1"></use>
                                    </mask>
                                    <g id="Clip-6"></g>
                                    <path d="M3.47241176,6.90574706 C1.65405882,6.94445294 0.0749411765,5.42627647 0.0905882353,3.52680588 C0.106235294,1.68251176 1.596,0.168041176 3.451,0.181217647 C5.35664706,0.194805882 6.81676471,1.65080588 6.82129412,3.54862941 C6.82541176,5.46786471 5.28211765,6.90986471 3.47241176,6.90574706" id="Fill-5" fill="#FF6B6B" mask="url(#mask-2)"></path>
                                </g>
                                <path d="M20.2283613,22.6999712 C19.8146027,23.1027697 19.3621838,23.0982792 18.9511867,22.6968279 C17.9354303,21.7053239 16.9344016,20.6985523 15.8970137,19.7286028 C15.3668137,19.2328508 15.0639738,18.6791713 15.0308363,17.9997576 L15,17.9714674 L15.0414219,16.3589264 C15.0409616,16.319859 15.0405014,16.2798935 15.0405014,16.240377 L15.0446436,16.240377 L15.096651,14.2546748 C15.0980318,14.16711 15.1578634,14.0247609 15.2204564,14.0067989 C15.3115846,13.9803049 15.4326285,14.0373343 15.5357229,14.0732584 C15.5817472,14.0889751 15.6162655,14.1379217 15.6544656,14.1742948 C17.6763134,16.1496688 19.6990817,18.1250428 21.720009,20.1013149 C22.0882035,20.4614535 22.0937264,20.85572 21.7338163,21.2149606 C21.2349128,21.7129578 20.7337081,22.2082607 20.2283613,22.6999712" id="Fill-8" fill="#FF6B6B"></path>
                            </g>
                        </g>
                    </g>
                </g>
            </g>
        </g>
    </g>
</svg>